<?xml version="1.0" encoding="UTF-8" standalone="no"?>
<svg
   xmlns:dc="http://purl.org/dc/elements/1.1/"
   xmlns:cc="http://creativecommons.org/ns#"
   xmlns:rdf="http://www.w3.org/1999/02/22-rdf-syntax-ns#"
   xmlns:svg="http://www.w3.org/2000/svg"
   xmlns="http://www.w3.org/2000/svg"
   viewBox="0 0 252.54668 116.42667"
   height="116.42667"
   width="252.54668"
   xml:space="preserve"
   id="svg2"
   version="1.1"><metadata
     id="metadata8"><rdf:RDF><cc:Work
         rdf:about=""><dc:format>image/svg+xml</dc:format><dc:type
           rdf:resource="http://purl.org/dc/dcmitype/StillImage" /></cc:Work></rdf:RDF></metadata><defs
     id="defs6" /><g
     transform="matrix(1.3333333,0,0,-1.3333333,0,116.42667)"
     id="g10"><g
       transform="scale(0.1)"
       id="g12"><path
         id="path14"
         style="fill:#76c92d;fill-opacity:1;fill-rule:nonzero;stroke:none"
         d="m 1793.69,569.285 c 0,27.707 22.51,50.199 50.2,50.199 27.72,0 50.19,-22.492 50.19,-50.199 0,-27.711 -22.47,-50.187 -50.19,-50.187 -27.69,0 -50.2,22.476 -50.2,50.187" /><path
         id="path16"
         style="fill:#ffffff;fill-opacity:1;fill-rule:nonzero;stroke:none"
         d="m 192.676,702.234 c 0,31.797 -6.141,55.387 -18.434,70.754 -12.293,15.348 -30.941,23.028 -56,23.028 H 91.5859 V 601.563 h 20.4021 c 27.825,0 48.227,8.261 61.207,24.816 12.981,16.527 19.481,41.828 19.481,75.855 m 95.062,3.309 c 0,-57.918 -15.586,-102.563 -46.726,-133.891 C 209.867,540.297 166.09,524.629 109.664,524.629 H 0 v 347.125 h 117.32 c 54.41,0 96.418,-14.258 126.024,-42.738 29.59,-28.496 44.394,-69.637 44.394,-123.473" /><path
         id="path18"
         style="fill:#ffffff;fill-opacity:1;fill-rule:nonzero;stroke:none"
         d="m 591.488,524.629 h 87.258 V 873.211 H 591.488 V 524.629" /><path
         id="path20"
         style="fill:#ffffff;fill-opacity:1;fill-rule:nonzero;stroke:none"
         d="m 801.316,654.652 c 0,-22.23 2.899,-39.183 8.7,-50.832 5.808,-11.652 15.543,-17.48 29.226,-17.48 13.547,0 23.106,5.828 28.688,17.48 5.578,11.649 8.355,28.602 8.355,50.832 0,22.11 -2.816,38.782 -8.469,50.043 -5.656,11.282 -15.32,16.934 -29.015,16.934 -13.391,0 -22.977,-5.617 -28.785,-16.809 -5.801,-11.199 -8.7,-27.914 -8.7,-50.168 m 163.786,0 c 0,-42.336 -11.098,-75.375 -33.356,-99.05 -22.23,-23.696 -53.371,-35.539 -93.383,-35.539 -38.39,0 -68.922,12.113 -91.601,36.339 -22.703,24.223 -34.047,56.965 -34.047,98.25 0,42.211 11.113,75.016 33.367,98.403 22.242,23.379 53.453,35.074 93.625,35.074 24.828,0 46.785,-5.41 65.82,-16.234 19.047,-10.821 33.735,-26.321 44.078,-46.516 10.336,-20.16 15.497,-43.75 15.497,-70.727" /><path
         id="path22"
         style="fill:#ffffff;fill-opacity:1;fill-rule:nonzero;stroke:none"
         d="m 999.75,524.629 h 87.26 V 783.555 H 999.75 V 524.629" /><path
         id="path24"
         style="fill:#ffffff;fill-opacity:1;fill-rule:nonzero;stroke:none"
         d="m 999.75,814.867 h 87.26 v 58.344 h -87.26 v -58.344" /><path
         id="path26"
         style="fill:#ffffff;fill-opacity:1;fill-rule:nonzero;stroke:none"
         d="m 1263.83,590.672 c 11.77,0 25.81,2.988 42.19,8.926 v -65.149 c -11.78,-5.152 -22.96,-8.867 -33.59,-11.066 -10.63,-2.219 -23.11,-3.32 -37.39,-3.32 -29.3,0 -50.43,7.359 -63.39,22.062 -12.92,14.695 -19.39,37.277 -19.39,67.738 v 106.735 h -30.56 v 66.941 h 30.56 v 66.109 l 87.93,15.301 v -81.41 h 55.68 v -66.941 h -55.68 V 615.816 c 0,-16.757 7.89,-25.144 23.64,-25.144" /><path
         id="path28"
         style="fill:#ffffff;fill-opacity:1;fill-rule:nonzero;stroke:none"
         d="m 1465.81,590.672 c 11.77,0 25.8,2.988 42.18,8.926 v -65.149 c -11.75,-5.152 -22.95,-8.867 -33.58,-11.066 -10.65,-2.219 -23.09,-3.32 -37.39,-3.32 -29.3,0 -50.43,7.359 -63.37,22.062 -12.94,14.695 -19.41,37.277 -19.41,67.738 v 106.735 h -30.59 v 66.941 h 30.59 v 67.113 l 87.93,14.297 v -81.41 h 55.7 v -66.941 h -55.7 V 615.816 c 0,-16.757 7.88,-25.144 23.64,-25.144" /><path
         id="path30"
         style="fill:#ffffff;fill-opacity:1;fill-rule:nonzero;stroke:none"
         d="m 1618.11,686.195 c 1.19,14.172 5.24,24.563 12.15,31.203 6.94,6.625 15.52,9.942 25.78,9.942 11.17,0 20.06,-3.735 26.66,-11.211 6.64,-7.457 10.1,-17.438 10.37,-29.934 z m 123.06,71.414 c -20.74,20.34 -50.17,30.512 -88.24,30.512 -40.02,0 -70.82,-11.687 -92.41,-35.078 -21.56,-23.383 -32.35,-56.934 -32.35,-100.66 0,-42.348 11.65,-75 34.92,-97.926 23.3,-22.922 55.99,-34.394 98.1,-34.394 20.22,0 37.63,1.382 52.21,4.125 14.49,2.718 28.53,7.628 42.14,14.718 l -13.41,58.344 c -9.9,-4.039 -19.31,-7.145 -28.19,-9.195 -12.85,-2.973 -26.95,-4.469 -42.27,-4.469 -16.83,0 -30.1,4.109 -39.84,12.34 -9.73,8.226 -14.92,19.59 -15.51,34.062 h 155.99 v 39.746 c 0,38.243 -10.39,67.543 -31.14,87.875" /><path
         id="path32"
         style="fill:#ffffff;fill-opacity:1;fill-rule:nonzero;stroke:none"
         d="m 403.547,686.195 c 1.191,14.172 5.246,24.563 12.164,31.203 6.922,6.625 15.504,9.942 25.781,9.942 11.149,0 20.039,-3.735 26.656,-11.211 6.625,-7.457 10.079,-17.438 10.375,-29.934 z m 123.074,71.414 c -20.75,20.34 -50.176,30.512 -88.266,30.512 -40.019,0 -70.812,-11.687 -92.378,-35.078 -21.575,-23.383 -32.364,-56.934 -32.364,-100.66 0,-42.348 11.641,-75 34.934,-97.926 23.277,-22.922 55.973,-34.394 98.074,-34.394 20.227,0 37.637,1.382 52.219,4.125 14.488,2.718 28.531,7.628 42.144,14.718 l -13.41,58.344 c -9.898,-4.039 -19.308,-7.145 -28.183,-9.195 -12.868,-2.973 -26.957,-4.469 -42.282,-4.469 -16.808,0 -30.101,4.109 -39.836,12.34 -9.742,8.226 -14.914,19.59 -15.511,34.062 h 155.98 v 39.746 c 0,38.243 -10.363,67.543 -31.121,87.875" /><path
         id="path34"
         style="fill:#ffffff;fill-opacity:1;fill-rule:nonzero;stroke:none"
         d="m 224.027,276.5 c 0,46.949 -11.925,82.266 -35.769,105.961 -23.848,23.691 -58.863,35.543 -105.0627,35.543 H 22.875 V 130.516 h 54.2656 c 97.9224,0 146.8864,48.66 146.8864,145.984 z m 24.891,0.898 c 0,-55.019 -14.43,-96.617 -43.281,-124.796 -28.856,-28.176 -71.239,-42.27 -127.1487,-42.27 H 0 v 327.856 h 88.5781 c 52.3239,0 92.1289,-13.68 119.4139,-41.04 27.281,-27.359 40.926,-67.277 40.926,-119.75" /><path
         id="path36"
         style="fill:#ffffff;fill-opacity:1;fill-rule:nonzero;stroke:none"
         d="m 314.789,110.332 h -22.203 v 243.762 h 22.203 V 110.332" /><path
         id="path38"
         style="fill:#ffffff;fill-opacity:1;fill-rule:nonzero;stroke:none"
         d="m 314.789,382.492 h -22.203 v 30.578 h 22.203 v -30.578" /><path
         id="path40"
         style="fill:#ffffff;fill-opacity:1;fill-rule:nonzero;stroke:none"
         d="m 621.234,110.332 h -22.203 v 243.762 h 22.203 V 110.332" /><path
         id="path42"
         style="fill:#ffffff;fill-opacity:1;fill-rule:nonzero;stroke:none"
         d="m 621.234,382.492 h -22.203 v 30.578 h 22.203 v -30.578" /><path
         id="path44"
         style="fill:#ffffff;fill-opacity:1;fill-rule:nonzero;stroke:none"
         d="m 381.32,278.07 c 0,-18.836 5.715,-33.445 17.153,-43.84 11.437,-10.394 26.722,-15.585 45.859,-15.585 20.328,0 35.914,5.156 46.758,15.472 10.836,10.317 16.258,25.262 16.258,44.852 0,20.777 -5.575,36.359 -16.707,46.754 -11.137,10.394 -26.723,15.586 -46.754,15.586 -19.438,0 -34.727,-5.571 -45.86,-16.707 C 386.887,313.469 381.32,297.949 381.32,278.07 Z M 362.707,69.0703 c 0,-33.4805 24.891,-50.2344 74.676,-50.2344 63.984,0 95.976,20.4063 95.976,61.2227 0,14.6523 -5.011,25.2694 -15.023,31.8434 -10.02,6.582 -26.238,9.868 -48.66,9.868 h -39.918 c -44.703,0 -67.051,-17.559 -67.051,-52.6997 z M 560.047,354.094 V 338.617 L 509.59,335.48 c 13.457,-16.742 20.183,-35.128 20.183,-55.167 0,-23.469 -7.816,-42.497 -23.433,-57.071 -15.625,-14.578 -36.594,-21.863 -62.902,-21.863 -11.067,0 -18.84,0.445 -23.325,1.344 -8.824,-4.629 -15.55,-10.09 -20.179,-16.371 -4.637,-6.278 -6.954,-12.926 -6.954,-19.957 0,-7.77 2.95,-13.457 8.86,-17.043 5.902,-3.59 15.808,-5.383 29.711,-5.383 h 42.609 c 26.461,0 46.715,-5.348 60.77,-16.035 14.05,-10.684 21.082,-26.493 21.082,-47.4262 0,-25.7109 -10.43,-45.5586 -31.285,-59.539 C 503.871,6.99609 474.16,0 435.59,0 404.938,0 381.207,5.91016 364.387,17.7148 347.57,29.5352 339.16,45.9727 339.16,67.0508 c 0,16.75 5.192,30.6562 15.586,41.7112 10.387,11.066 24.477,18.613 42.27,22.648 -7.328,3.141 -13.196,7.594 -17.602,13.344 -4.414,5.754 -6.617,12.367 -6.617,19.848 0,16.289 10.391,30.64 31.172,43.054 -14.207,5.828 -25.27,14.992 -33.192,27.473 -7.925,12.476 -11.882,26.797 -11.882,42.941 0,24.368 7.738,43.918 23.21,58.641 15.473,14.723 36.36,22.09 62.676,22.09 15.996,0 28.403,-1.571 37.227,-4.707 h 78.039" /><path
         id="path46"
         style="fill:#ffffff;fill-opacity:1;fill-rule:nonzero;stroke:none"
         d="m 889.281,126.027 c 26.012,0 46.532,7.438 61.555,22.317 15.027,14.879 22.539,35.543 22.539,62.004 v 23.996 l -42.609,-1.797 c -34.239,-1.649 -58.641,-6.984 -73.215,-16.031 -14.578,-9.051 -21.867,-23.133 -21.867,-42.274 0,-15.25 4.671,-27.101 14.015,-35.543 9.34,-8.441 22.539,-12.672 39.582,-12.672 z m 89.699,-15.695 -5.605,38.57 h -1.793 c -12.262,-15.699 -24.859,-26.797 -37.789,-33.3 -12.934,-6.504 -28.223,-9.754 -45.859,-9.754 -23.922,0 -42.536,6.132 -55.836,18.386 -13.313,12.254 -19.961,29.231 -19.961,50.907 0,23.769 9.902,42.238 29.715,55.39 19.804,13.153 48.472,20.102 86,20.856 l 46.418,1.343 v 16.145 c 0,23.18 -4.707,40.668 -14.125,52.477 -9.418,11.804 -24.594,17.714 -45.524,17.714 -22.578,0 -45.973,-6.277 -70.191,-18.836 l -8.297,19.286 c 26.758,12.558 53.219,18.836 79.387,18.836 26.757,0 46.753,-6.95 59.984,-20.856 13.23,-13.902 19.848,-35.574 19.848,-65.031 V 110.332 H 978.98" /><path
         id="path48"
         style="fill:#ffffff;fill-opacity:1;fill-rule:nonzero;stroke:none"
         d="m 1079.96,110.332 h -22.21 v 348.934 h 22.21 V 110.332" /><path
         id="path50"
         style="fill:#ffffff;fill-opacity:1;fill-rule:nonzero;stroke:none"
         d="m 753.441,125.578 c 14.047,0 26.309,1.195 36.778,3.59 v -17.941 c -10.766,-3.586 -23.176,-5.379 -37.227,-5.379 -21.527,0 -37.418,5.75 -47.652,17.265 -10.242,11.508 -15.363,29.602 -15.363,54.27 v 157.422 h -36.102 v 19.289 h 36.102 v 54.676 l 22.652,4.3 v -58.976 h 71.535 V 334.805 H 712.629 V 180.523 c 0,-18.695 3.285,-32.519 9.867,-41.488 6.574,-8.969 16.891,-13.457 30.945,-13.457" /></g></g></svg>