<?xml version="1.0" encoding="UTF-8" ?>
<!DOCTYPE svg PUBLIC "-//W3C//DTD SVG 1.1//EN" "http://www.w3.org/Graphics/SVG/1.1/DTD/svg11.dtd">
<svg width="979pt" height="1021pt" viewBox="0 0 979 1021" version="1.1" xmlns="http://www.w3.org/2000/svg">
<path fill="#939392" d=" M 0.00 0.00 L 979.00 0.00 L 979.00 1.04 C 652.67 0.95 326.33 1.01 0.00 1.02 L 0.00 0.00 Z" />
<path fill="#1d1d1b" d=" M 0.00 1.02 C 326.33 1.01 652.67 0.95 979.00 1.04 L 979.00 1.59 C 951.46 290.73 924.22 579.91 896.78 869.06 C 895.62 882.14 894.03 895.19 893.26 908.30 C 758.76 946.08 624.13 983.43 489.57 1021.00 L 489.41 1021.00 C 364.72 986.25 240.04 951.45 115.35 916.67 C 105.49 913.84 95.54 911.32 85.74 908.30 C 84.72 892.17 82.76 876.11 81.37 860.01 C 54.22 573.86 27.25 287.69 0.00 1.54 L 0.00 1.02 Z" />
<path fill="#333333" d=" M 489.33 85.28 C 621.46 85.32 753.60 85.17 885.73 85.35 C 885.77 90.97 884.83 96.53 884.32 102.11 C 861.37 344.76 838.31 587.41 815.40 830.06 C 815.07 834.27 814.73 838.51 813.82 842.65 C 713.43 870.64 613.05 898.67 512.64 926.65 C 504.84 928.64 497.21 931.34 489.30 932.90 C 489.02 905.25 489.56 877.59 489.04 849.94 C 490.34 849.96 491.65 849.98 492.96 850.02 L 492.69 849.58 C 509.05 847.68 523.66 836.45 530.57 821.63 C 535.02 812.26 536.03 801.41 533.84 791.31 C 530.80 778.02 520.87 766.59 508.12 761.77 C 502.25 759.23 495.77 759.00 489.48 759.17 C 488.95 738.14 489.40 717.07 489.25 696.03 C 489.36 683.43 489.01 670.83 489.43 658.24 C 584.18 650.56 678.92 642.84 773.68 635.29 C 775.77 615.23 777.23 595.10 779.15 575.01 C 780.01 563.59 781.54 552.21 781.85 540.75 C 684.39 547.10 586.91 553.23 489.45 559.51 C 488.82 530.46 489.67 501.39 489.05 472.35 C 488.30 472.10 486.81 471.60 486.07 471.35 C 487.45 471.10 488.84 470.82 490.25 470.67 C 576.18 466.59 662.11 462.26 748.05 458.15 C 761.85 457.54 775.64 456.53 789.45 456.26 C 791.72 435.32 793.19 414.28 795.25 393.30 C 796.01 382.93 797.30 372.60 797.76 362.21 C 764.51 363.25 731.25 364.25 698.02 365.45 C 691.03 365.67 684.02 365.43 677.06 366.15 C 666.10 366.71 655.10 366.22 644.16 367.18 C 595.91 368.45 547.66 370.38 499.41 371.65 C 496.01 371.35 492.62 371.09 489.22 371.25 C 489.30 343.52 489.22 315.79 489.28 288.06 C 489.16 286.23 489.37 283.01 486.19 283.83 C 487.23 283.32 488.36 282.96 489.54 283.13 C 495.65 283.49 501.79 283.28 507.90 282.88 C 565.26 282.23 622.60 280.85 679.97 280.17 C 700.62 279.53 721.30 279.37 741.97 279.21 C 755.63 278.38 769.33 278.65 783.01 278.38 C 790.47 278.15 797.97 278.67 805.40 277.82 C 808.13 246.74 811.00 215.68 813.62 184.60 C 705.60 184.59 597.57 184.59 489.55 184.60 C 489.16 181.09 489.15 177.56 489.24 174.04 C 489.31 144.46 489.13 114.87 489.33 85.28 Z" />
<path fill="#f5f5f5" d=" M 165.51 184.59 C 273.49 184.58 381.47 184.61 489.45 184.58 C 489.34 216.45 489.52 248.37 489.38 280.20 C 489.34 282.93 486.06 282.42 484.22 282.79 C 454.48 282.99 424.75 281.97 395.01 281.55 C 368.37 281.13 341.72 280.42 315.07 280.16 C 296.01 279.33 276.90 279.63 257.83 279.01 C 239.55 278.28 221.22 278.59 202.93 278.13 C 193.20 277.25 183.38 277.78 173.61 277.48 C 171.46 252.62 169.04 227.77 167.16 202.89 C 166.24 198.70 166.79 194.35 165.85 190.17 C 165.71 188.31 165.61 186.45 165.51 184.59 Z" />
<path fill="#ffffff" d=" M 489.55 184.60 C 597.57 184.59 705.60 184.59 813.62 184.60 C 811.00 215.68 808.13 246.74 805.40 277.82 C 797.97 278.67 790.47 278.15 783.01 278.38 C 769.33 278.65 755.63 278.38 741.97 279.21 C 721.30 279.37 700.62 279.53 679.97 280.17 C 622.60 280.85 565.26 282.23 507.90 282.88 C 501.79 283.28 495.65 283.49 489.54 283.13 C 490.03 278.74 489.55 274.34 489.56 269.94 C 489.62 241.50 489.60 213.05 489.55 184.60 Z" />
<path fill="#f5f5f5" d=" M 181.21 361.25 C 207.18 362.05 233.14 363.17 259.12 363.89 C 270.41 364.84 281.77 364.24 293.06 365.29 C 301.33 365.73 309.66 365.21 317.90 366.14 C 327.23 366.72 336.62 366.13 345.91 367.13 C 355.24 367.62 364.62 367.17 373.92 368.11 C 402.31 368.80 430.67 370.12 459.06 370.94 C 469.44 371.83 479.94 371.07 490.28 372.36 C 490.29 405.13 490.30 437.90 490.25 470.67 C 485.47 470.43 480.69 470.45 475.92 470.13 C 469.40 469.09 462.74 469.86 456.20 468.92 C 425.72 467.47 395.24 465.58 364.74 464.09 C 357.88 463.24 350.93 463.75 344.07 462.85 C 338.36 462.38 332.62 462.59 326.91 462.14 C 320.07 461.14 313.11 461.83 306.26 460.90 C 276.10 459.47 245.97 457.50 215.81 456.19 C 209.23 455.20 202.54 455.68 195.92 455.13 C 193.74 454.73 191.54 454.63 189.34 454.55 C 186.64 427.15 184.42 399.66 181.90 372.23 C 181.44 368.58 181.40 364.91 181.21 361.25 Z" />
<path fill="#ffffff" d=" M 698.02 365.45 C 731.25 364.25 764.51 363.25 797.76 362.21 C 797.30 372.60 796.01 382.93 795.25 393.30 C 793.19 414.28 791.72 435.32 789.45 456.26 C 775.64 456.53 761.85 457.54 748.05 458.15 C 662.11 462.26 576.18 466.59 490.25 470.67 C 490.30 437.90 490.29 405.13 490.28 372.36 L 490.28 371.72 C 493.32 371.74 496.36 371.69 499.41 371.65 C 547.66 370.38 595.91 368.45 644.16 367.18 C 655.10 366.22 666.10 366.71 677.06 366.15 C 684.02 365.43 691.03 365.67 698.02 365.45 Z" />
<path fill="#f5f5f5" d=" M 197.18 540.69 C 213.82 541.84 230.45 543.00 247.10 543.85 C 260.44 544.97 273.86 545.53 287.22 546.58 C 287.62 578.35 288.88 610.10 289.57 641.86 C 281.33 641.59 273.16 640.47 264.93 640.14 C 245.11 638.37 225.24 636.79 205.39 635.22 C 204.56 630.81 204.49 626.33 204.17 621.88 C 202.05 599.24 200.00 576.55 198.12 553.87 C 197.37 549.51 197.37 545.08 197.18 540.69 Z" />
<path fill="#ffffff" d=" M 489.45 559.51 C 586.91 553.23 684.39 547.10 781.85 540.75 C 781.54 552.21 780.01 563.59 779.15 575.01 C 777.23 595.10 775.77 615.23 773.68 635.29 C 678.92 642.84 584.18 650.56 489.43 658.24 C 489.51 625.33 489.47 592.42 489.45 559.51 Z" />
<path fill="#87c400" d=" M 472.21 761.15 C 477.68 758.99 483.62 759.09 489.40 759.18 C 489.40 786.76 489.40 814.35 489.42 841.94 C 489.29 844.62 489.50 847.55 488.06 849.96 C 473.10 848.19 459.12 839.49 451.30 826.57 C 444.24 815.47 442.17 801.36 445.77 788.73 C 449.45 775.95 459.59 765.34 472.21 761.15 Z" />
<path fill="#91d300" d=" M 489.48 759.17 C 495.77 759.00 502.25 759.23 508.12 761.77 C 520.87 766.59 530.80 778.02 533.84 791.31 C 536.03 801.41 535.02 812.26 530.57 821.63 C 523.66 836.45 509.05 847.68 492.69 849.58 C 488.98 849.62 489.79 845.43 489.58 842.94 C 489.53 815.02 489.70 787.09 489.48 759.17 Z" />
</svg>
